<mxfile host="app.diagrams.net" modified="2024-06-12T06:49:46.228Z" agent="Mozilla/5.0 (Windows NT 10.0; Win64; x64) AppleWebKit/537.36 (KHTML, like Gecko) Chrome/125.0.0.0 Safari/537.36" etag="5PEidVgEoqzYNOPOq_fg" version="24.4.4" type="github">
  <diagram name="‫עמוד-1‬" id="1HOFslem63EXmMTgZ_XA">
    <mxGraphModel dx="1405" dy="658" grid="1" gridSize="10" guides="1" tooltips="1" connect="1" arrows="1" fold="1" page="1" pageScale="1" pageWidth="827" pageHeight="1169" math="0" shadow="0">
      <root>
        <mxCell id="0" />
        <mxCell id="1" parent="0" />
      </root>
    </mxGraphModel>
  </diagram>
</mxfile>
